<?xml version="1.0" encoding="utf-8"?>
<!-- Generator: Adobe Illustrator 16.0.0, SVG Export Plug-In . SVG Version: 6.00 Build 0)  -->
<!DOCTYPE svg PUBLIC "-//W3C//DTD SVG 1.1//EN" "http://www.w3.org/Graphics/SVG/1.1/DTD/svg11.dtd">
<svg version="1.1" id="Layer_1" xmlns="http://www.w3.org/2000/svg" xmlns:xlink="http://www.w3.org/1999/xlink" x="0px" y="0px"
	 width="24px" height="24px" viewBox="0 0 24 24" enable-background="new 0 0 24 24" xml:space="preserve">
<g>
	<g>
		<g>
			<path fill="#FFFFFF" d="M17.855,19.824H6.141c-0.366,0-0.665,0.295-0.665,0.664c0,0.367,0.295,0.666,0.665,0.666h11.719
				c0.365,0,0.664-0.297,0.664-0.666C18.52,20.119,18.225,19.824,17.855,19.824z"/>
		</g>
	</g>
	<g>
		<g>
			<path fill="#FFFFFF" d="M17.855,16.914H6.141c-0.366,0-0.665,0.295-0.665,0.664c0,0.365,0.295,0.664,0.665,0.664h11.719
				c0.365,0,0.664-0.295,0.664-0.664C18.52,17.209,18.225,16.914,17.855,16.914z"/>
		</g>
	</g>
	<g>
		<g>
			<path fill="#FFFFFF" d="M12,2.846c-1.574,0-2.86,1.282-2.86,2.86c0,1.573,1.286,2.855,2.86,2.855c1.574,0,2.859-1.282,2.859-2.86
				C14.859,4.125,13.574,2.846,12,2.846z M12,7.229c-0.838,0-1.527-0.688-1.527-1.526c0-0.838,0.685-1.527,1.527-1.527
				c0.841,0,1.525,0.688,1.525,1.527C13.525,6.54,12.838,7.229,12,7.229z"/>
		</g>
	</g>
	<g>
		<g>
			<path fill="#FFFFFF" d="M15.791,9.998c-2.426-0.944-5.156-0.944-7.583,0c-0.794,0.31-1.325,1.101-1.325,1.97v2.7
				c-0.004,0.365,0.295,0.664,0.661,0.664h8.91c0.365,0,0.664-0.295,0.664-0.664v-2.7C17.117,11.099,16.586,10.308,15.791,9.998z
				 M15.791,14.006H8.208v-2.034c0-0.323,0.193-0.621,0.48-0.731c2.121-0.822,4.504-0.822,6.625,0
				c0.287,0.114,0.479,0.405,0.479,0.731V14.006L15.791,14.006z"/>
		</g>
	</g>
	<g>
		<g>
			<path fill="#FFFFFF" d="M19.107,0.057H8.059c-0.511,0-0.991,0.197-1.354,0.559L3.526,3.794C3.165,4.156,2.968,4.636,2.968,5.147
				v16.876c0,1.059,0.861,1.92,1.919,1.92h14.224c1.059,0,1.92-0.861,1.92-1.92V1.977C21.02,0.919,20.158,0.057,19.107,0.057z
				 M6.875,2.323v1.644H5.23L6.875,2.323z M19.693,7.166h-2.469c-0.367,0-0.666,0.295-0.666,0.665c0,0.366,0.295,0.665,0.666,0.665
				h2.469v1.18h-0.904c-0.365,0-0.664,0.295-0.664,0.665c0,0.366,0.295,0.665,0.664,0.665h0.904v11.023
				c0,0.326-0.264,0.59-0.586,0.59H4.876c-0.323,0-0.586-0.264-0.586-0.586V5.293h3.249c0.366,0,0.665-0.295,0.665-0.665V1.379
				h10.904c0.322,0,0.586,0.264,0.586,0.586V7.166z"/>
		</g>
	</g>
</g>
</svg>
